<?xml version="1.0" encoding="UTF-8" standalone="no"?>
<svg
   xmlns:dc="http://purl.org/dc/elements/1.1/"
   xmlns:cc="http://creativecommons.org/ns#"
   xmlns:rdf="http://www.w3.org/1999/02/22-rdf-syntax-ns#"
   xmlns:svg="http://www.w3.org/2000/svg"
   xmlns="http://www.w3.org/2000/svg"
   xmlns:sodipodi="http://sodipodi.sourceforge.net/DTD/sodipodi-0.dtd"
   xmlns:inkscape="http://www.inkscape.org/namespaces/inkscape"
   id="Layer_1"
   data-name="Layer 1"
   viewBox="0 0 79.37 90.71"
   version="1.1"
   sodipodi:docname="bashoriginal.svg"
   inkscape:version="0.92.3 (2405546, 2018-03-11)">
  <metadata
     id="metadata13">
    <rdf:RDF>
      <cc:Work
         rdf:about="">
        <dc:format>image/svg+xml</dc:format>
        <dc:type
           rdf:resource="http://purl.org/dc/dcmitype/StillImage" />
      </cc:Work>
    </rdf:RDF>
  </metadata>
  <sodipodi:namedview
     pagecolor="#ffffff"
     bordercolor="#666666"
     borderopacity="1"
     objecttolerance="10"
     gridtolerance="10"
     guidetolerance="10"
     inkscape:pageopacity="0"
     inkscape:pageshadow="2"
     inkscape:window-width="1366"
     inkscape:window-height="710"
     id="namedview11"
     showgrid="false"
     inkscape:zoom="2.6016977"
     inkscape:cx="85.474933"
     inkscape:cy="-0.7687288"
     inkscape:window-x="0"
     inkscape:window-y="346"
     inkscape:window-maximized="1"
     inkscape:current-layer="g31"
     showguides="false" />
  <defs
     id="defs4">
    <style
       id="style2">.cls-1{fill:#1b1b1f;}</style>
  </defs>
  <title
     id="title6">BASH_logo-transparent-bg-bw</title>
  <path
     class="cls-1"
     d="M73.85,18.52l-28.64-17a10.79,10.79,0,0,0-11,0l-28.64,17A11.42,11.42,0,0,0,0,28.36v34a11.42,11.42,0,0,0,5.52,9.84l28.64,17a10.79,10.79,0,0,0,11,0l28.64-17a11.42,11.42,0,0,0,5.52-9.84v-34A11.42,11.42,0,0,0,73.85,18.52ZM51.67,71.61l0,2.44a0.9,0.9,0,0,1-.42.75l-1.45.83c-0.23.12-.42,0-0.42-0.32l0-2.4a4.71,4.71,0,0,1-3.3.32,0.44,0.44,0,0,1-.16-0.54l0.52-2.21A0.92,0.92,0,0,1,46.73,70a0.58,0.58,0,0,1,.14-0.1,0.29,0.29,0,0,1,.23,0,4,4,0,0,0,3-.38,4,4,0,0,0,2.24-3.43c0-1.24-.68-1.76-2.32-1.77-2.08,0-4-.4-4.05-3.47a8.89,8.89,0,0,1,3.36-6.8l0-2.47a0.89,0.89,0,0,1,.42-0.76l1.4-.89c0.23-.12.42,0,0.42,0.33l0,2.47a4.56,4.56,0,0,1,2.74-.33,0.44,0.44,0,0,1,.18.57L54,55.16a0.94,0.94,0,0,1-.25.44,0.58,0.58,0,0,1-.14.11,0.33,0.33,0,0,1-.21,0,3.63,3.63,0,0,0-2.64.43,3.32,3.32,0,0,0-2,2.94c0,1.12.59,1.46,2.57,1.5,2.65,0,3.79,1.2,3.82,3.86A9.48,9.48,0,0,1,51.67,71.61Zm15-4.11a0.57,0.57,0,0,1-.22.55l-7.24,4.4a0.21,0.21,0,0,1-.34-0.21V70.37a0.52,0.52,0,0,1,.33-0.46l7.13-4.27a0.21,0.21,0,0,1,.34.21V67.5Zm5-41.81L44.57,42.43c-3.38,2-5.87,4.19-5.87,8.26V84.07c0,2.44,1,4,2.5,4.48a8.77,8.77,0,0,1-1.5.15,8.87,8.87,0,0,1-4.52-1.25l-28.64-17A9.42,9.42,0,0,1,2,62.36v-34a9.42,9.42,0,0,1,4.54-8.1l28.64-17a8.83,8.83,0,0,1,9,0l28.64,17a9.36,9.36,0,0,1,4.4,6.55C76.29,24.79,74.15,24.23,71.66,25.69Z"
     id="path8" />
  <g
     transform="matrix(0.20419533,0,0,0.20400367,121.60698,-5.2466298)"
     id="g31">
    <path
       inkscape:connector-curvature="0"
       class="st3"
       d="m 406.8,371.8 -40.3,24.1 c -1.1,0.6 -1.9,1.3 -1.9,2.6 V 409 c 0,1.3 0.9,1.8 1.9,1.2 l 40.9,-24.8 c 1.1,-0.6 1.2,-1.8 1.2,-3.1 V 373 c 0.1,-1.3 -0.8,-1.8 -1.8,-1.2 z"
       id="path29"
       style="fill:#008000" />
    <path
       style="opacity:0.98000004;fill:#008000;fill-opacity:1;stroke-width:0.3843644;stroke-miterlimit:4;stroke-dasharray:none"
       d="M 35.315379,87.24417 C 31.925276,85.358724 7.6974521,70.940024 6.0891819,69.850793 5.176429,69.232612 4.0682695,67.953059 3.398631,66.74411 L 2.2600399,64.688529 2.1497123,46.290281 C 2.0249184,25.479624 2.0843827,24.914164 4.6842017,22.189244 6.0292398,20.779485 31.58855,5.2802346 36.084107,3.148238 38.280133,2.1067835 40.682755,1.9723659 42.62165,2.7824873 44.523789,3.5772517 73.191977,20.615025 74.269681,21.591209 c 0.496222,0.44948 1.23728,1.470642 1.64679,2.269249 l 0.744567,1.452013 -1.070243,-0.25211 c -0.588639,-0.138661 -1.156729,-0.250417 -1.26243,-0.248346 -0.1057,0.0021 -0.541815,0.02425 -0.969148,0.04928 -1.090349,0.06388 -30.426297,18.24398 -32.179095,19.94206 -2.665668,2.58246 -2.636497,2.313224 -2.51457,23.208295 0.103653,17.763182 0.145702,18.738126 0.841316,19.506494 l 0.732211,0.808795 -1.50094,-0.007 c -0.913701,-0.0042 -2.252846,-0.425142 -3.42276,-1.075805 z"
       id="path880"
       inkscape:connector-curvature="0"
       transform="matrix(4.8972716,0,0,4.9018726,-595.54242,25.718311)" />
    <path
       style="opacity:0.98000004;fill:#008000;fill-opacity:1;stroke-width:0.3843644;stroke-miterlimit:4;stroke-dasharray:none"
       d="M 37.237201,87.787042 C 35.628562,87.275953 33.728745,86.182871 16.037601,75.589611 6.3552835,69.79195 5.0890191,68.918198 4.0113741,67.291253 3.3489181,66.291125 2.7193221,65.123407 2.6122719,64.69632 2.5052218,64.269234 2.4686583,55.271601 2.5310198,44.70158 2.6541221,23.836227 2.5981404,24.383299 4.8179796,22.352653 6.2715401,21.022978 23.902521,10.204362 33.585739,4.7003539 c 2.804475,-1.594083 3.620867,-1.876643 5.765466,-1.9954751 2.449569,-0.1357307 2.580949,-0.09216 6.726377,2.230792 6.99926,3.9221383 26.612522,15.7074102 27.758232,16.6794422 0.588004,0.49887 1.395569,1.467298 1.794594,2.152061 l 0.725491,1.245024 -1.387421,-0.260282 c -0.971931,-0.182336 -1.764728,-0.06561 -2.647317,0.389756 -3.532363,1.822516 -25.538148,15.468258 -29.799223,18.478437 -3.996903,2.823557 -3.74728,1.25367 -3.74728,23.566789 0,15.106874 0.109521,19.602142 0.493979,20.275222 0.587222,1.028063 0.317479,1.071208 -2.031436,0.324922 z"
       id="path882"
       inkscape:connector-curvature="0"
       transform="matrix(4.8972716,0,0,4.9018726,-595.54242,25.718311)" />
    <path
       style="opacity:0.98000004;fill:#008000;fill-opacity:1;stroke-width:0.3843644;stroke-miterlimit:4;stroke-dasharray:none"
       d="M 37.237201,87.782103 C 35.601235,87.257081 32.882682,85.698664 16.537713,75.91609 10.860806,72.518424 5.7084474,69.230898 5.0880264,68.610476 4.4676056,67.990054 3.613334,66.802941 3.1896451,65.972441 2.4440776,64.511006 2.4229215,63.835613 2.5318529,44.972899 2.6540738,23.808976 2.595843,24.38514 4.8179796,22.352831 6.7275819,20.606358 33.36644,4.4731259 36.552217,3.1336954 c 2.019645,-0.8491407 4.86437,-0.6540907 7.135864,0.4892741 2.321438,1.1685024 17.247803,9.9228695 24.971909,14.6461105 4.626832,2.829281 6.256307,4.188609 7.345965,6.128107 0.178956,0.318524 -0.231922,0.432496 -1.396665,0.387419 -1.457406,-0.05641 -2.389759,0.379461 -7.980216,3.730686 -8.125225,4.870701 -17.552285,10.777342 -22.60165,14.161341 -3.029483,2.030309 -4.123934,2.996797 -4.612372,4.07309 -0.57027,1.256614 -0.640374,3.515547 -0.640213,20.629357 1.4e-4,14.946244 0.109946,19.41046 0.493979,20.08304 0.587685,1.029251 0.313166,1.072488 -2.031617,0.319983 z"
       id="path884"
       inkscape:connector-curvature="0"
       transform="matrix(4.8972716,0,0,4.9018726,-595.54242,25.718311)" />
    <path
       style="opacity:0.98000004;fill:#008000;fill-opacity:1;stroke-width:0.3843644;stroke-miterlimit:4;stroke-dasharray:none"
       d="m 49.729044,74.056332 c 0,-1.188579 -0.01755,-1.199411 -1.547181,-0.954814 -1.735342,0.277492 -2.176739,-0.195513 -1.754046,-1.879654 0.176999,-0.705221 0.497348,-0.960051 1.206891,-0.960051 1.435606,0 3.446866,-0.951306 4.158106,-1.966744 0.344729,-0.49217 0.62678,-1.455657 0.62678,-2.141082 0,-1.45024 -0.813059,-2.042005 -2.805629,-2.042005 -0.7521,0 -1.753856,-0.342286 -2.331455,-0.796626 -0.839288,-0.660184 -1.0113,-1.104549 -1.004305,-2.594459 0.0095,-2.016803 1.004471,-4.502667 2.243461,-5.604959 0.56013,-0.49833 0.823013,-1.185241 0.823013,-2.150523 0,-0.8859 0.263859,-1.657104 0.702903,-2.054433 1.010792,-0.914754 1.218919,-0.799912 1.218919,0.672583 v 1.3087 l 1.580378,-0.211973 1.580377,-0.211973 -0.280302,1.30555 c -0.37829,1.761944 -0.375839,1.75947 -1.782354,1.79946 -1.517855,0.04316 -3.088332,1.158828 -3.581708,2.544459 -0.565081,1.587012 0.116729,2.301045 2.477938,2.595046 2.801436,0.348816 3.641174,1.253662 3.603174,3.882541 -0.03137,2.170328 -1.023803,4.574327 -2.403509,5.822101 -0.550871,0.498194 -0.809629,1.195768 -0.809629,2.18264 0,1.365586 -0.761047,2.658434 -1.564913,2.658434 -0.1963,0 -0.356909,-0.540998 -0.356909,-1.202218 z"
       id="path886"
       inkscape:connector-curvature="0"
       transform="matrix(4.8972716,0,0,4.9018726,-595.54242,25.718311)" />
    <path
       style="opacity:0.98000004;fill:#4ca725;fill-opacity:1;stroke-width:0.3843644;stroke-miterlimit:4;stroke-dasharray:none"
       d="m 58.953789,71.249292 c 0,-0.772881 0.668711,-1.338314 3.869649,-3.272007 3.848303,-2.324769 3.868974,-2.331836 3.747552,-1.28118 -0.09966,0.862336 -0.7578,1.460076 -3.581374,3.252683 -1.902604,1.20791 -3.589003,2.204895 -3.747553,2.215523 -0.158551,0.01063 -0.288274,-0.401131 -0.288274,-0.915019 z"
       id="path892"
       inkscape:connector-curvature="0"
       transform="matrix(4.8972716,0,0,4.9018726,-595.54242,25.718311)" />
    <path
       style="opacity:0.98000004;fill:#4ca725;fill-opacity:1;stroke-width:0.3843644;stroke-miterlimit:4;stroke-dasharray:none"
       d="M 37.045018,87.772544 C 35.442272,87.176576 34.290166,86.513355 18.500276,77.097076 11.788774,73.094682 5.7715954,69.294045 5.1287672,68.651218 4.485939,68.008388 3.613334,66.802941 3.1896451,65.972441 2.4440776,64.511006 2.4229215,63.835613 2.5318529,44.972899 2.6513681,24.277497 2.6076663,24.768408 4.5181666,22.660242 5.7804496,21.26736 27.561638,7.8813075 34.931014,3.9694358 c 2.475297,-1.3139567 2.89043,-1.415315 5.18892,-1.2669179 2.856565,0.1844281 3.246756,0.3916873 22.677499,12.0456331 8.871746,5.320991 11.201951,6.892953 12.256539,8.268287 l 1.30215,1.698193 -1.878696,0.197123 C 72.328414,25.13724 70.426064,26.140195 60.299065,32.386862 47.370603,40.361564 43.094422,43.161186 41.155611,44.920107 l -1.935571,1.755984 -0.352243,5.162575 c -0.437234,6.408204 -0.03634,34.748387 0.505874,35.761525 0.473346,0.884453 -0.266354,0.939202 -2.328653,0.172353 z"
       id="path894"
       inkscape:connector-curvature="0"
       transform="matrix(4.8972716,0,0,4.9018726,-595.54242,25.718311)" />
    <path
       style="opacity:0.98000004;fill:#4ca725;fill-opacity:1;stroke-width:0.3843644;stroke-miterlimit:4;stroke-dasharray:none"
       d="m 49.985287,74.617943 c -0.140934,-0.140934 -0.256243,-0.573344 -0.256243,-0.960911 0,-0.56587 -0.302833,-0.704668 -1.537458,-0.704668 -1.444192,0 -1.537458,-0.06838 -1.537458,-1.127192 0,-1.164066 0.148931,-1.26569 2.56643,-1.751229 0.671635,-0.134894 1.674561,-0.698668 2.228724,-1.252831 0.807849,-0.807849 0.98483,-1.309531 0.89285,-2.530931 -0.12543,-1.665582 -0.526483,-2.018813 -2.681753,-2.361977 -2.252188,-0.358596 -3.112701,-1.291777 -3.071766,-3.331171 0.04193,-2.089204 0.552096,-3.533872 1.751135,-4.958849 0.492401,-0.585185 1.004881,-1.749416 1.138845,-2.587181 0.133964,-0.837765 0.50464,-1.739878 0.823726,-2.004695 0.492381,-0.40864 0.617776,-0.293382 0.828816,0.761821 0.236694,1.183469 0.318062,1.233999 1.690658,1.049895 l 1.441997,-0.193412 -0.345551,1.204866 c -0.190053,0.662676 -0.345551,1.226618 -0.345551,1.253203 0,0.02659 -0.632374,0.150958 -1.405275,0.276382 -1.78632,0.28988 -3.591463,1.977009 -3.591463,3.356665 0,1.326395 0.596113,1.798825 2.692802,2.1341 2.169753,0.346957 3.457029,1.593836 3.457029,3.348541 0,1.778137 -0.936072,4.309283 -2.109314,5.703602 -0.531081,0.631154 -0.965601,1.454399 -0.965601,1.829434 0,0.945839 -0.783195,3.102781 -1.126633,3.102781 -0.155487,0 -0.398013,-0.11531 -0.538946,-0.256243 z"
       id="path896"
       inkscape:connector-curvature="0"
       transform="matrix(4.8972716,0,0,4.9018726,-595.54242,25.718311)" />
    <path
       style="opacity:0.98000004;fill:#4ca725;fill-opacity:1;stroke-width:0.3843644;stroke-miterlimit:4;stroke-dasharray:none"
       d=""
       id="path898"
       inkscape:connector-curvature="0"
       transform="matrix(4.8972716,0,0,4.9018726,-595.54242,25.718311)" />
  </g>
</svg>
