<?xml version="1.0" encoding="UTF-8" standalone="no"?>
<svg
   xmlns:dc="http://purl.org/dc/elements/1.1/"
   xmlns:cc="http://creativecommons.org/ns#"
   xmlns:rdf="http://www.w3.org/1999/02/22-rdf-syntax-ns#"
   xmlns:svg="http://www.w3.org/2000/svg"
   xmlns="http://www.w3.org/2000/svg"
   xmlns:sodipodi="http://sodipodi.sourceforge.net/DTD/sodipodi-0.dtd"
   xmlns:inkscape="http://www.inkscape.org/namespaces/inkscape"
   viewBox="0 0 24 24"
   version="1.1"
   id="svg4"
   sodipodi:docname="folder-go.svg"
   inkscape:version="0.92.3 (2405546, 2018-03-11)">
  <metadata
     id="metadata10">
    <rdf:RDF>
      <cc:Work
         rdf:about="">
        <dc:format>image/svg+xml</dc:format>
        <dc:type
           rdf:resource="http://purl.org/dc/dcmitype/StillImage" />
      </cc:Work>
    </rdf:RDF>
  </metadata>
  <defs
     id="defs8" />
  <sodipodi:namedview
     pagecolor="#ffffff"
     bordercolor="#666666"
     borderopacity="1"
     objecttolerance="10"
     gridtolerance="10"
     guidetolerance="10"
     inkscape:pageopacity="0"
     inkscape:pageshadow="2"
     inkscape:window-width="770"
     inkscape:window-height="480"
     id="namedview6"
     showgrid="false"
     inkscape:zoom="9.8333333"
     inkscape:cx="12"
     inkscape:cy="12"
     inkscape:window-x="0"
     inkscape:window-y="346"
     inkscape:window-maximized="0"
     inkscape:current-layer="svg4" />
  <path
     d="M10 4H4c-1.11 0-2 .89-2 2v12a2 2 0 0 0 2 2h16a2 2 0 0 0 2-2V8c0-1.11-.9-2-2-2h-8l-2-2z"
     fill="#90a4ae"
     id="path2"
     style="fill:#117594;fill-opacity:1" />
  <g
     id="g855"
     transform="matrix(0.62664421,0,0,0.63410711,10.170374,5.1643143)">
    <g
       id="g823"
       style="fill:#73cddc">
      <path
         id="path817"
         d="m 10.575,1.6953 c -2.6341,0 -4.7565,2.453 -4.7565,5.5017 v 4.5995 C 5.80973,11.795749 5.800735,11.795 5.791964,11.7943 v 4.7101 c 0,3.0487 2.1224,5.5017 4.7565,5.5017 h 2.2865 c 2.6341,0 4.7565,-2.453 4.7565,-5.5017 v -4.5995 c 0.0088,7.49e-4 0.01777,0.0015 0.02654,0.0022 V 7.197 c 0,-3.0487 -2.1224,-5.5017 -4.7565,-5.5017 h -2.2865 z"
         inkscape:connector-curvature="0" />
      <rect
         id="rect819"
         ry="1.1246001"
         height="3.335"
         width="2.2886"
         y="6.0925002"
         x="-1.1775"
         transform="matrix(0.48489,-0.87457,0.85979,0.51065,0,0)" />
      <rect
         id="rect821"
         ry="1.1433001"
         height="3.3903999"
         width="2.2969999"
         y="-15.076"
         x="10.261"
         transform="matrix(0.44646,0.8948,-0.89204,0.45195,0,0)" />
    </g>
    <circle
       id="circle825"
       r="2.0545001"
       cy="5.1300998"
       cx="9.2672997"
       style="fill:#ffffff;stroke:#5e5d5b;stroke-width:0.1" />
    <circle
       id="circle827"
       r="2.0545001"
       cy="5.1156001"
       cx="14.214"
       style="fill:#ffffff;stroke:#5e5d5b;stroke-width:0.1" />
    <ellipse
       id="ellipse829"
       ry="0.90066999"
       rx="0.79244"
       cy="5.0511999"
       cx="8.0389996"
       style="fill:#030d18" />
    <path
       id="path831"
       d="m 11.792,9.5557 0.76303,0.13832 a 0.40286,0.68856 0 0 1 0.008,0.13832 0.40286,0.68856 0 0 1 -0.40259,0.68923 A 0.40286,0.68856 0 0 1 11.75712,9.83234 0.40286,0.68856 0 0 1 11.792,9.5557 Z"
       inkscape:connector-curvature="0"
       style="fill:#ffffff;stroke:#ffffff;stroke-width:0.15521" />
    <ellipse
       id="ellipse833"
       ry="0.16614"
       rx="0.13796"
       cy="5.3646998"
       cx="8.5096998"
       style="fill:#ffffff" />
    <ellipse
       id="ellipse835"
       ry="0.90066999"
       rx="0.79244"
       cy="5.1890998"
       cx="12.945"
       style="fill:#030d18" />
    <ellipse
       id="ellipse837"
       ry="0.16614"
       rx="0.13796"
       cy="5.4461002"
       cx="13.414"
       style="fill:#ffffff" />
    <ellipse
       id="ellipse839"
       ry="1.026"
       rx="0.70762002"
       cy="-3.4087"
       cx="-12.982"
       transform="matrix(-0.63477,-0.7727,0.7727,-0.63477,0,0)"
       style="fill:#f6d2a1" />
    <path
       id="path841"
       d="m 11.772,9.5526 -0.75678,0.13495 a 0.39956,0.6718 0 0 0 -0.0079,0.13495 0.39956,0.6718 0 0 0 0.39929,0.67245 0.39956,0.6718 0 0 0 0.40001,-0.67245 0.39956,0.6718 0 0 0 -0.0346,-0.2699 z"
       inkscape:connector-curvature="0"
       style="fill:#ffffff;stroke:#ffffff;stroke-width:0.15267999" />
    <g
       id="g851"
       style="fill:#f6d2a1">
      <ellipse
         id="ellipse843"
         ry="1.0257"
         rx="0.70736003"
         cy="-21.563"
         cx="1.8408"
         transform="matrix(0.63477,-0.7727,-0.7727,-0.63477,0,0)" />
      <ellipse
         id="ellipse845"
         ry="1.2703"
         rx="0.86444998"
         cy="-21.784"
         cx="-17.281"
         transform="matrix(0.3054,-0.95222,-0.97065,-0.24051,0,0)" />
      <ellipse
         id="ellipse847"
         ry="1.2703"
         rx="0.86444998"
         cy="2.5871999"
         cx="22.885"
         transform="matrix(0.22652,0.97401,0.95652,-0.29167,0,0)" />
      <path
         id="path849"
         d="m 10.708,8.3921 c -0.32934,0 -0.59377,0.26653 -0.59377,0.59734 v 0.11487 c 0,0.33081 0.26444,0.59734 0.59377,0.59734 h 0.38609 a 0.97346,0.77195 0 0 1 0.69716,-0.23434 0.97346,0.77195 0 0 1 0.69807,0.23434 h 0.33394 c 0.32934,0 0.59469,-0.26654 0.59469,-0.59734 V 8.98944 c 0,-0.33081 -0.26535,-0.59734 -0.59469,-0.59734 h -2.1153 z"
         inkscape:connector-curvature="0"
         style="stroke:#657075;stroke-width:0.1" />
    </g>
    <ellipse
       id="ellipse853"
       ry="0.68013"
       rx="1.2084"
       cy="8.2031002"
       cx="11.734"
       style="fill:#030d18;stroke:#ffffff;stroke-width:0.162" />
  </g>
</svg>
