<?xml version="1.0" encoding="UTF-8" standalone="no"?>
<svg
   xmlns:dc="http://purl.org/dc/elements/1.1/"
   xmlns:cc="http://creativecommons.org/ns#"
   xmlns:rdf="http://www.w3.org/1999/02/22-rdf-syntax-ns#"
   xmlns:svg="http://www.w3.org/2000/svg"
   xmlns="http://www.w3.org/2000/svg"
   xmlns:sodipodi="http://sodipodi.sourceforge.net/DTD/sodipodi-0.dtd"
   xmlns:inkscape="http://www.inkscape.org/namespaces/inkscape"
   viewBox="0 0 24 24"
   version="1.1"
   id="svg4"
   sodipodi:docname="folder-mysql.svg"
   inkscape:version="0.92.3 (2405546, 2018-03-11)">
  <metadata
     id="metadata10">
    <rdf:RDF>
      <cc:Work
         rdf:about="">
        <dc:format>image/svg+xml</dc:format>
        <dc:type
           rdf:resource="http://purl.org/dc/dcmitype/StillImage" />
      </cc:Work>
    </rdf:RDF>
  </metadata>
  <defs
     id="defs8" />
  <sodipodi:namedview
     pagecolor="#ffffff"
     bordercolor="#666666"
     borderopacity="1"
     objecttolerance="10"
     gridtolerance="10"
     guidetolerance="10"
     inkscape:pageopacity="0"
     inkscape:pageshadow="2"
     inkscape:window-width="770"
     inkscape:window-height="480"
     id="namedview6"
     showgrid="false"
     inkscape:zoom="9.8333333"
     inkscape:cx="12"
     inkscape:cy="12"
     inkscape:window-x="0"
     inkscape:window-y="346"
     inkscape:window-maximized="0"
     inkscape:current-layer="svg4" />
  <path
     d="M10 4H4c-1.11 0-2 .89-2 2v12a2 2 0 0 0 2 2h16a2 2 0 0 0 2-2V8c0-1.11-.9-2-2-2h-8l-2-2z"
     id="path2"
     style="fill:#14d2d2;fill-opacity:1"
     fill="#90a4ae" />
  <g
     id="g833"
     transform="matrix(0.3798196,0,0,0.47133158,9.3912381,5.4985769)">
    <path
       id="path819"
       style="fill:#5d87a1;fill-rule:evenodd"
       d="M 8.785,6.865 A 3.055,3.055 0 0 0 8,6.965 V 7 H 8.038 A 6.461,6.461 0 0 0 8.65,7.785 C 8.804,8.091 8.938,8.396 9.091,8.702 9.11,8.683 9.129,8.663 9.129,8.663 a 1.074,1.074 0 0 0 0.4,-0.957 4.314,4.314 0 0 1 -0.23,-0.4 C 9.184,7.115 8.935,7.019 8.782,6.866"
       inkscape:connector-curvature="0" />
    <path
       id="path821"
       style="fill:#00758f;fill-rule:evenodd"
       d="m 27.78,23.553 a 8.849,8.849 0 0 0 -3.712,0.536 c -0.287,0.115 -0.745,0.115 -0.785,0.478 0.154,0.153 0.172,0.4 0.307,0.613 a 4.467,4.467 0 0 0 0.995,1.167 c 0.4,0.306 0.8,0.611 1.225,0.879 0.745,0.461 1.588,0.728 2.314,1.187 0.422,0.268 0.842,0.612 1.264,0.9 0.21,0.153 0.343,0.4 0.611,0.5 v -0.058 a 3.844,3.844 0 0 0 -0.291,-0.613 c -0.191,-0.19 -0.383,-0.363 -0.575,-0.554 a 9.118,9.118 0 0 0 -1.99,-1.932 c -0.613,-0.422 -1.953,-1 -2.2,-1.7 l -0.039,-0.039 a 7.69,7.69 0 0 0 1.321,-0.308 c 0.65,-0.172 1.243,-0.133 1.912,-0.3 0.307,-0.077 0.862,-0.268 0.862,-0.268 v -0.3 c -0.342,-0.34 -0.587,-0.795 -0.947,-1.116 A 25.338,25.338 0 0 0 24.93,20.297 c -0.587,-0.379 -1.344,-0.623 -1.969,-0.946 -0.226,-0.114 -0.6,-0.17 -0.737,-0.36 A 7.594,7.594 0 0 1 21.448,17.534 C 20.9,16.494 20.369,15.341 19.897,14.241 A 20.236,20.236 0 0 0 18.932,12.084 19.078,19.078 0 0 0 11.609,5 9.07,9.07 0 0 0 9.188,4.224 C 8.714,4.204 8.242,4.167 7.769,4.149 A 7.55,7.55 0 0 1 6.9,3.485 C 5.818,2.8 3.038,1.328 2.242,3.277 1.732,4.508 3,5.718 3.435,6.343 A 8.866,8.866 0 0 1 4.4,7.762 c 0.133,0.322 0.171,0.663 0.3,1 a 22.556,22.556 0 0 0 0.987,2.538 8.946,8.946 0 0 0 0.7,1.172 c 0.153,0.209 0.417,0.3 0.474,0.645 a 5.421,5.421 0 0 0 -0.436,1.419 8.336,8.336 0 0 0 0.549,6.358 c 0.3,0.473 1.022,1.514 1.987,1.116 0.851,-0.34 0.662,-1.419 0.908,-2.364 0.056,-0.229 0.019,-0.379 0.132,-0.53 V 19.3 c 0,0 0.483,1.061 0.723,1.6 a 10.813,10.813 0 0 0 2.4,2.59 A 3.514,3.514 0 0 1 14,24.657 V 25 h 0.427 A 1.054,1.054 0 0 0 14,24.212 9.4,9.4 0 0 1 13.041,23.052 24.992,24.992 0 0 1 10.977,19.533 c -0.3,-0.6 -0.553,-1.258 -0.793,-1.857 -0.11,-0.231 -0.11,-0.58 -0.295,-0.7 A 7.266,7.266 0 0 0 9.005,18.289 11.419,11.419 0 0 0 8.488,21.21 c -0.073,0.02 -0.037,0 -0.073,0.038 C 7.826,21.093 7.623,20.456 7.401,19.916 A 8.756,8.756 0 0 1 7.235,14.752 C 7.363,14.347 7.918,13.071 7.696,12.684 7.585,12.315 7.216,12.104 7.014,11.813 A 7.767,7.767 0 0 1 6.351,10.576 C 5.912,9.5 5.69,8.3 5.212,7.216 A 10.4,10.4 0 0 0 4.291,5.727 9.586,9.586 0 0 1 3.276,4.22 C 3.184,4.007 3.055,3.659 3.202,3.427 A 0.3,0.3 0 0 1 3.461,3.175 C 3.699,2.963 4.382,3.233 4.621,3.349 A 9.2,9.2 0 0 1 6.445,4.316 C 6.703,4.51 7.311,5.001 7.311,5.001 h 0.18 c 0.612,0.133 1.3,0.037 1.876,0.21 a 12.247,12.247 0 0 1 2.755,1.32 16.981,16.981 0 0 1 5.969,6.545 c 0.23,0.439 0.327,0.842 0.537,1.3 0.4,0.94 0.9,1.9 1.3,2.814 a 12.578,12.578 0 0 0 1.36,2.564 c 0.286,0.4 1.435,0.612 1.952,0.822 a 13.7,13.7 0 0 1 1.32,0.535 c 0.651,0.4 1.3,0.861 1.913,1.3 0.305,0.23 1.262,0.708 1.32,1.091"
       inkscape:connector-curvature="0" />
  </g>
</svg>
