<?xml version="1.0" encoding="UTF-8" standalone="no"?>
<svg
   xmlns:dc="http://purl.org/dc/elements/1.1/"
   xmlns:cc="http://creativecommons.org/ns#"
   xmlns:rdf="http://www.w3.org/1999/02/22-rdf-syntax-ns#"
   xmlns:svg="http://www.w3.org/2000/svg"
   xmlns="http://www.w3.org/2000/svg"
   xmlns:sodipodi="http://sodipodi.sourceforge.net/DTD/sodipodi-0.dtd"
   xmlns:inkscape="http://www.inkscape.org/namespaces/inkscape"
   clip-rule="evenodd"
   stroke-linejoin="round"
   stroke-miterlimit="1.4142"
   version="1.1"
   viewBox="0 0 24 24"
   xml:space="preserve"
   id="svg6"
   sodipodi:docname="folder-powershell-open.svg"
   inkscape:version="0.92.3 (2405546, 2018-03-11)"><metadata
     id="metadata12"><rdf:RDF><cc:Work
         rdf:about=""><dc:format>image/svg+xml</dc:format><dc:type
           rdf:resource="http://purl.org/dc/dcmitype/StillImage" /></cc:Work></rdf:RDF></metadata><defs
     id="defs10" /><sodipodi:namedview
     pagecolor="#ffffff"
     bordercolor="#666666"
     borderopacity="1"
     objecttolerance="10"
     gridtolerance="10"
     guidetolerance="10"
     inkscape:pageopacity="0"
     inkscape:pageshadow="2"
     inkscape:window-width="1366"
     inkscape:window-height="711"
     id="namedview8"
     showgrid="false"
     inkscape:zoom="9.8333333"
     inkscape:cx="-5.2881356"
     inkscape:cy="12"
     inkscape:window-x="0"
     inkscape:window-y="345"
     inkscape:window-maximized="1"
     inkscape:current-layer="svg6" /><path
     d="m19 20h-15c-1.11 0-2-0.9-2-2v-12c0-1.11 0.89-2 2-2h6l2 2h7c1.097 0 2 0.903 2 2h-17v10l2.14-8h17.07l-2.28 8.5c-0.23 0.87-1.01 1.5-1.93 1.5z"
     fill="#00bcd4"
     id="path2" /><path
     id="path822"
     style="fill:#fcfeff;fill-opacity:1;stroke-width:0.6574012"
     d="m 23.068459,9.7337156 c 0.299154,0 0.48842,0.2831514 0.409047,0.6300104 l -1.929234,10.065788 c -0.06717,0.346856 -0.360209,0.630009 -0.659378,0.630009 h -9.823161 c -0.299156,0 -0.488424,-0.283153 -0.409052,-0.630009 l 1.929235,-10.065788 c 0.06717,-0.346859 0.360211,-0.6300104 0.659377,-0.6300104 h 9.823166 m -3.663136,8.4944974 h -2.442111 c -0.280841,0 -0.506733,0.268991 -0.506733,0.594615 0,0.332703 0.225892,0.601699 0.506733,0.601699 h 2.442111 c 0.286946,0 0.51895,-0.26899 0.51895,-0.601699 0,-0.325624 -0.231996,-0.594615 -0.51895,-0.594615 m -6.13549,0.198209 c -0.244211,0.198207 -0.299155,0.587536 -0.128195,0.863603 0.170945,0.297308 0.512841,0.353943 0.757046,0.162813 4.487354,-3.659705 4.517906,-3.702171 4.548397,-3.723438 0.109898,-0.113259 0.164832,-0.26899 0.170944,-0.424724 0.0062,-0.141583 -0.02444,-0.261914 -0.09769,-0.396416 l -3.003776,-3.737593 c -0.201473,-0.254834 -0.543364,-0.268989 -0.763177,-0.02122 -0.21979,0.226517 -0.231996,0.622932 -0.03052,0.87776 l 2.533699,3.143007 z"
     inkscape:connector-curvature="0" /></svg>