<?xml version="1.0" encoding="UTF-8" standalone="no"?>
<svg
   xmlns:dc="http://purl.org/dc/elements/1.1/"
   xmlns:cc="http://creativecommons.org/ns#"
   xmlns:rdf="http://www.w3.org/1999/02/22-rdf-syntax-ns#"
   xmlns:svg="http://www.w3.org/2000/svg"
   xmlns="http://www.w3.org/2000/svg"
   xmlns:sodipodi="http://sodipodi.sourceforge.net/DTD/sodipodi-0.dtd"
   xmlns:inkscape="http://www.inkscape.org/namespaces/inkscape"
   viewBox="0 0 24 24"
   version="1.1"
   id="svg4"
   sodipodi:docname="folder-db-open.svg"
   inkscape:version="0.92.3 (2405546, 2018-03-11)">
  <metadata
     id="metadata10">
    <rdf:RDF>
      <cc:Work
         rdf:about="">
        <dc:format>image/svg+xml</dc:format>
        <dc:type
           rdf:resource="http://purl.org/dc/dcmitype/StillImage" />
      </cc:Work>
    </rdf:RDF>
  </metadata>
  <defs
     id="defs8" />
  <sodipodi:namedview
     pagecolor="#ffffff"
     bordercolor="#666666"
     borderopacity="1"
     objecttolerance="10"
     gridtolerance="10"
     guidetolerance="10"
     inkscape:pageopacity="0"
     inkscape:pageshadow="2"
     inkscape:window-width="770"
     inkscape:window-height="480"
     id="namedview6"
     showgrid="false"
     inkscape:zoom="9.8333333"
     inkscape:cx="12"
     inkscape:cy="12"
     inkscape:window-x="0"
     inkscape:window-y="346"
     inkscape:window-maximized="0"
     inkscape:current-layer="svg4" />
  <path
     d="M19 20H4c-1.11 0-2-.9-2-2V6c0-1.11.89-2 2-2h6l2 2h7a2 2 0 0 1 2 2H4v10l2.14-8h17.07l-2.28 8.5c-.23.87-1.01 1.5-1.93 1.5z"
     fill="#90a4ae"
     id="path2"
     style="fill:#808000" />
  <path
     id="path817"
     style="fill:#ffca28;stroke-width:0.52950847"
     d="m 16.677967,10.220339 c -2.284916,0 -4.135594,0.970848 -4.135594,2.169492 0,1.198644 1.850678,2.169491 4.135594,2.169491 2.284915,0 4.135593,-0.970847 4.135593,-2.169491 0,-1.198644 -1.850678,-2.169492 -4.135593,-2.169492 m -4.135594,3.254238 v 1.627118 c 0,1.198644 1.850678,2.169492 4.135594,2.169492 2.284915,0 4.135593,-0.970848 4.135593,-2.169492 v -1.627118 c 0,1.198644 -1.850678,2.169491 -4.135593,2.169491 -2.284916,0 -4.135594,-0.970847 -4.135594,-2.169491 m 0,2.711864 v 1.627119 c 0,1.198644 1.850678,2.169491 4.135594,2.169491 2.284915,0 4.135593,-0.970847 4.135593,-2.169491 v -1.627119 c 0,1.198644 -1.850678,2.169491 -4.135593,2.169491 -2.284916,0 -4.135594,-0.970847 -4.135594,-2.169491 z"
     inkscape:connector-curvature="0" />
</svg>
