<?xml version="1.0" encoding="UTF-8" standalone="no"?>
<svg
   xmlns:dc="http://purl.org/dc/elements/1.1/"
   xmlns:cc="http://creativecommons.org/ns#"
   xmlns:rdf="http://www.w3.org/1999/02/22-rdf-syntax-ns#"
   xmlns:svg="http://www.w3.org/2000/svg"
   xmlns="http://www.w3.org/2000/svg"
   xmlns:sodipodi="http://sodipodi.sourceforge.net/DTD/sodipodi-0.dtd"
   xmlns:inkscape="http://www.inkscape.org/namespaces/inkscape"
   clip-rule="evenodd"
   fill-rule="evenodd"
   stroke-linejoin="round"
   stroke-miterlimit="1.4142"
   version="1.1"
   viewBox="0 0 24 24"
   xml:space="preserve"
   id="svg6"
   sodipodi:docname="folder-powershell.svg"
   inkscape:version="0.92.3 (2405546, 2018-03-11)"><metadata
     id="metadata12"><rdf:RDF><cc:Work
         rdf:about=""><dc:format>image/svg+xml</dc:format><dc:type
           rdf:resource="http://purl.org/dc/dcmitype/StillImage" /></cc:Work></rdf:RDF></metadata><defs
     id="defs10" /><sodipodi:namedview
     pagecolor="#ffffff"
     bordercolor="#666666"
     borderopacity="1"
     objecttolerance="10"
     gridtolerance="10"
     guidetolerance="10"
     inkscape:pageopacity="0"
     inkscape:pageshadow="2"
     inkscape:window-width="1366"
     inkscape:window-height="711"
     id="namedview8"
     showgrid="false"
     inkscape:zoom="9.8333333"
     inkscape:cx="-22.576271"
     inkscape:cy="12"
     inkscape:window-x="0"
     inkscape:window-y="345"
     inkscape:window-maximized="1"
     inkscape:current-layer="svg6" /><path
     d="m10 4h-6c-1.11 0-2 0.89-2 2v12c0 1.097 0.903 2 2 2h16c1.097 0 2-0.903 2-2v-10c0-1.11-0.9-2-2-2h-8l-2-2z"
     fill="#00bcd4"
     fill-rule="nonzero"
     id="path2" /><path
     id="path822"
     style="fill:#f1fbff;fill-opacity:1;stroke-width:0.73530126"
     d="m 23.130779,9.2252407 c 0.326727,0 0.53344,0.3243393 0.44675,0.7216505 L 21.470478,21.476839 c -0.07334,0.397309 -0.393409,0.72165 -0.720152,0.72165 H 10.021764 c -0.326728,0 -0.5334398,-0.324341 -0.4467509,-0.72165 L 11.682065,9.9468912 c 0.07335,-0.3973112 0.39341,-0.7216505 0.720151,-0.7216505 h 10.728563 m -4.000767,9.7300983 h -2.667198 c -0.306728,0 -0.55344,0.308115 -0.55344,0.681106 0,0.381097 0.246712,0.689223 0.55344,0.689223 h 2.667198 c 0.313395,0 0.566781,-0.308118 0.566781,-0.689223 0,-0.372991 -0.253379,-0.681106 -0.566781,-0.681106 m -6.700995,0.227038 c -0.26672,0.227038 -0.326727,0.673 -0.140031,0.989224 0.186706,0.340553 0.560108,0.405426 0.826821,0.186494 4.900954,-4.192041 4.934321,-4.240683 4.967622,-4.265047 0.120028,-0.129736 0.180037,-0.308115 0.186704,-0.486502 0.0066,-0.162173 -0.02668,-0.30001 -0.10669,-0.454076 L 14.88283,10.871211 c -0.220045,-0.291903 -0.593447,-0.308118 -0.83352,-0.02432 -0.240046,0.259466 -0.253378,0.713542 -0.03334,1.005438 l 2.767235,3.600186 z"
     inkscape:connector-curvature="0" /></svg>