<?xml version="1.0" encoding="UTF-8" standalone="no"?>
<svg
   xmlns:dc="http://purl.org/dc/elements/1.1/"
   xmlns:cc="http://creativecommons.org/ns#"
   xmlns:rdf="http://www.w3.org/1999/02/22-rdf-syntax-ns#"
   xmlns:svg="http://www.w3.org/2000/svg"
   xmlns="http://www.w3.org/2000/svg"
   xmlns:sodipodi="http://sodipodi.sourceforge.net/DTD/sodipodi-0.dtd"
   xmlns:inkscape="http://www.inkscape.org/namespaces/inkscape"
   viewBox="0 0 24 24"
   version="1.1"
   id="svg4"
   sodipodi:docname="folder-db.svg"
   inkscape:version="0.92.3 (2405546, 2018-03-11)">
  <metadata
     id="metadata10">
    <rdf:RDF>
      <cc:Work
         rdf:about="">
        <dc:format>image/svg+xml</dc:format>
        <dc:type
           rdf:resource="http://purl.org/dc/dcmitype/StillImage" />
      </cc:Work>
    </rdf:RDF>
  </metadata>
  <defs
     id="defs8" />
  <sodipodi:namedview
     pagecolor="#ffffff"
     bordercolor="#666666"
     borderopacity="1"
     objecttolerance="10"
     gridtolerance="10"
     guidetolerance="10"
     inkscape:pageopacity="0"
     inkscape:pageshadow="2"
     inkscape:window-width="1366"
     inkscape:window-height="710"
     id="namedview6"
     showgrid="false"
     inkscape:zoom="9.8333333"
     inkscape:cx="6.9152542"
     inkscape:cy="12"
     inkscape:window-x="0"
     inkscape:window-y="346"
     inkscape:window-maximized="1"
     inkscape:current-layer="svg4" />
  <path
     d="M10 4H4c-1.11 0-2 .89-2 2v12a2 2 0 0 0 2 2h16a2 2 0 0 0 2-2V8c0-1.11-.9-2-2-2h-8l-2-2z"
     fill="#90a4ae"
     id="path2"
     style="fill:#005e5e;fill-opacity:1" />
  <path
     id="path816"
     style="fill:#03a9f4;stroke-width:0.62041837"
     d="m 21.228656,6.4794778 c 0.234446,0 0.382775,0.3217965 0.320571,0.7159929 L 20.037296,18.635037 c -0.05263,0.394197 -0.282294,0.715993 -0.516749,0.715993 h -7.698356 c -0.234446,0 -0.382774,-0.321796 -0.320569,-0.715993 L 13.013551,7.1954707 c 0.05264,-0.3941964 0.282295,-0.7159929 0.51675,-0.7159929 h 7.698355 M 18.35788,16.133303 h -1.913868 c -0.220094,0 -0.397125,0.305704 -0.397125,0.675768 0,0.37811 0.177031,0.68382 0.397125,0.68382 h 1.913868 c 0.224878,0 0.406698,-0.305701 0.406698,-0.68382 0,-0.370064 -0.181815,-0.675768 -0.406698,-0.675768 m -4.808348,0.225261 c -0.191386,0.225258 -0.234445,0.667722 -0.100477,0.981469 0.133971,0.337883 0.401909,0.402248 0.593291,0.185025 3.516714,-4.15918 3.540657,-4.207441 3.564552,-4.231612 0.08612,-0.128709 0.129187,-0.305701 0.133971,-0.482692 0.0048,-0.160908 -0.01915,-0.297658 -0.07656,-0.450516 l -2.354028,-4.2477 C 15.152389,7.8229231 14.884452,7.8068367 14.712186,8.0883997 14.539938,8.3458329 14.53037,8.7963493 14.688266,9.0859555 l 1.985649,3.5719645 z"
     inkscape:connector-curvature="0" />
</svg>
