<?xml version="1.0" encoding="UTF-8" standalone="no"?>
<svg
   xmlns:dc="http://purl.org/dc/elements/1.1/"
   xmlns:cc="http://creativecommons.org/ns#"
   xmlns:rdf="http://www.w3.org/1999/02/22-rdf-syntax-ns#"
   xmlns:svg="http://www.w3.org/2000/svg"
   xmlns="http://www.w3.org/2000/svg"
   xmlns:sodipodi="http://sodipodi.sourceforge.net/DTD/sodipodi-0.dtd"
   xmlns:inkscape="http://www.inkscape.org/namespaces/inkscape"
   clip-rule="evenodd"
   stroke-linejoin="round"
   stroke-miterlimit="1.4142"
   version="1.1"
   viewBox="0 0 24 24"
   xml:space="preserve"
   id="svg6"
   sodipodi:docname="folder-groovy-open.svg"
   inkscape:version="0.92.3 (2405546, 2018-03-11)"><metadata
     id="metadata12"><rdf:RDF><cc:Work
         rdf:about=""><dc:format>image/svg+xml</dc:format><dc:type
           rdf:resource="http://purl.org/dc/dcmitype/StillImage" /></cc:Work></rdf:RDF></metadata><defs
     id="defs10" /><sodipodi:namedview
     pagecolor="#ffffff"
     bordercolor="#666666"
     borderopacity="1"
     objecttolerance="10"
     gridtolerance="10"
     guidetolerance="10"
     inkscape:pageopacity="0"
     inkscape:pageshadow="2"
     inkscape:window-width="1366"
     inkscape:window-height="711"
     id="namedview8"
     showgrid="false"
     inkscape:zoom="9.8333333"
     inkscape:cx="-5.2881356"
     inkscape:cy="12"
     inkscape:window-x="0"
     inkscape:window-y="345"
     inkscape:window-maximized="1"
     inkscape:current-layer="svg6" /><path
     d="m19 20h-15c-1.11 0-2-.9-2-2v-12c0-1.11.89-2 2-2h6l2 2h7c1.097 0 2 .903 2 2h-17v10l2.14-8h17.07l-2.28 8.5c-.23.87-1.01 1.5-1.93 1.5z"
     fill="#e57373"
     style="fill:#1e88e5"
     id="path2" /><path
     id="path822"
     d="m 17.338982,9.6098138 a 6.4071356,5.7461188 0 0 0 -6.407134,5.7461182 6.4071356,5.7461188 0 0 0 6.407134,5.746119 6.4071356,5.7461188 0 0 0 6.407137,-5.746119 6.4071356,5.7461188 0 0 0 -6.407137,-5.7461182 z M 18.132927,10.9851 c 0.576083,0 1.04278,0.148153 1.401159,0.442529 0.36173,0.294369 0.542901,0.674895 0.542901,1.143489 0,0.504634 -0.201941,0.949735 -0.607205,1.334229 -0.405274,0.384485 -0.871571,0.576715 -1.397426,0.576715 -0.308137,0 -0.563668,-0.0678 -0.767983,-0.202964 -0.200959,-0.13517 -0.301749,-0.30195 -0.301749,-0.5002 0,-0.120157 0.03798,-0.226301 0.115015,-0.319418 0.08037,-0.09311 0.173188,-0.139749 0.277016,-0.139749 0.100481,0 0.150874,0.05236 0.150874,0.157489 0,0.09311 0.03798,0.165206 0.115001,0.216274 0.07704,0.05107 0.165407,0.07653 0.265886,0.07653 0.267949,0 0.524714,-0.163917 0.769185,-0.491326 0.247851,-0.330417 0.372239,-0.682618 0.372239,-1.058082 0,-0.26433 -0.09599,-0.479172 -0.286905,-0.644402 -0.190909,-0.168209 -0.436856,-0.252872 -0.738287,-0.252872 -0.45216,0 -0.890438,0.180783 -1.315808,0.541234 -0.422013,0.360457 -0.767159,0.834236 -1.035121,1.422987 -0.264599,0.585742 -0.396972,1.14383 -0.396972,1.672501 0,0.486613 0.116758,0.873986 0.351218,1.162342 0.234454,0.285358 0.546408,0.428111 0.934951,0.428111 0.656481,0 1.283962,-0.416787 1.883454,-1.248825 L 19.409201,15.1808 c 0.117229,-0.01501 0.175605,0.01038 0.175605,0.07653 0,0.03004 -0.04561,0.158785 -0.136035,0.387072 -0.09043,0.228289 -0.213585,0.609934 -0.371006,1.144568 0.519144,-0.270337 0.921086,-0.569842 1.205762,-0.897267 v 0.519054 c -0.227754,0.237301 -0.662873,0.504498 -1.305931,0.801868 -0.133973,0.799027 -0.43155,1.415546 -0.890376,1.851089 -0.458857,0.438556 -0.974334,0.658826 -1.547109,0.658826 -0.274648,0 -0.490598,-0.05778 -0.647994,-0.171912 -0.154072,-0.114141 -0.231256,-0.271218 -0.231256,-0.472472 0,-0.558707 0.605097,-1.101354 1.814184,-1.627016 0.127271,-0.405512 0.250428,-0.770239 0.371004,-1.094654 -0.211007,0.273342 -0.516933,0.515079 -0.918868,0.72532 -0.401918,0.210267 -0.775456,0.314984 -1.120411,0.314984 -0.562686,0 -1.031004,-0.217704 -1.4061,-0.65326 -0.371776,-0.438554 -0.557742,-0.992666 -0.557742,-1.662507 0,-0.705901 0.211165,-1.374435 0.63318,-2.005265 0.422014,-0.633787 0.975475,-1.139858 1.662094,-1.518332 0.686619,-0.38148 1.351711,-0.572285 1.994767,-0.572285 z m -0.774189,6.92101 c -0.870811,0.39049 -1.30593,0.77495 -1.30593,1.153425 0,0.201255 0.107187,0.302782 0.321534,0.302782 0.422013,0 0.749937,-0.486018 0.984403,-1.456265 z"
     inkscape:connector-curvature="0"
     style="fill:#26c6da;stroke-width:0.59962767" /></svg>