<?xml version="1.0" encoding="UTF-8" standalone="no"?>
<svg
   xmlns:dc="http://purl.org/dc/elements/1.1/"
   xmlns:cc="http://creativecommons.org/ns#"
   xmlns:rdf="http://www.w3.org/1999/02/22-rdf-syntax-ns#"
   xmlns:svg="http://www.w3.org/2000/svg"
   xmlns="http://www.w3.org/2000/svg"
   xmlns:sodipodi="http://sodipodi.sourceforge.net/DTD/sodipodi-0.dtd"
   xmlns:inkscape="http://www.inkscape.org/namespaces/inkscape"
   clip-rule="evenodd"
   fill-rule="evenodd"
   stroke-linejoin="round"
   stroke-miterlimit="1.4142"
   version="1.1"
   viewBox="0 0 24 24"
   xml:space="preserve"
   id="svg6"
   sodipodi:docname="folder-groovy.svg"
   inkscape:version="0.92.3 (2405546, 2018-03-11)"><metadata
     id="metadata12"><rdf:RDF><cc:Work
         rdf:about=""><dc:format>image/svg+xml</dc:format><dc:type
           rdf:resource="http://purl.org/dc/dcmitype/StillImage" /></cc:Work></rdf:RDF></metadata><defs
     id="defs10" /><sodipodi:namedview
     pagecolor="#ffffff"
     bordercolor="#666666"
     borderopacity="1"
     objecttolerance="10"
     gridtolerance="10"
     guidetolerance="10"
     inkscape:pageopacity="0"
     inkscape:pageshadow="2"
     inkscape:window-width="1920"
     inkscape:window-height="1056"
     id="namedview8"
     showgrid="false"
     inkscape:zoom="9.8333333"
     inkscape:cx="-22.576271"
     inkscape:cy="-0.072033898"
     inkscape:window-x="1366"
     inkscape:window-y="0"
     inkscape:window-maximized="1"
     inkscape:current-layer="svg6" /><path
     d="m10 4h-6c-1.11 0-2 .89-2 2v12c0 1.097.903 2 2 2h16c1.097 0 2-.903 2-2v-10c0-1.11-.9-2-2-2h-8l-2-2z"
     fill="#e57373"
     fill-rule="nonzero"
     style="fill:#1e88e5"
     id="path2" /><path
     id="path822"
     d="m 17.237287,8.9996441 a 6.5088305,6.1528984 0 0 0 -6.508829,6.1528979 6.5088305,6.1528984 0 0 0 6.508829,6.152898 6.5088305,6.1528984 0 0 0 6.508832,-6.152898 6.5088305,6.1528984 0 0 0 -6.508832,-6.1528979 z m 0.806545,1.4726459 c 0.585228,0 1.059334,0.158642 1.423401,0.473856 0.367469,0.315209 0.551517,0.722672 0.551517,1.224439 0,0.540359 -0.205145,1.01697 -0.616844,1.428683 -0.411704,0.411702 -0.885404,0.61754 -1.419605,0.61754 -0.313027,0 -0.572615,-0.07259 -0.780172,-0.21733 -0.204148,-0.144743 -0.306536,-0.323326 -0.306536,-0.535611 0,-0.128659 0.03858,-0.242322 0.11683,-0.342031 0.08166,-0.0997 0.175935,-0.149635 0.281412,-0.149635 0.102067,0 0.153269,0.05606 0.153269,0.168638 0,0.0997 0.03858,0.176901 0.11683,0.231583 0.07827,0.05468 0.168032,0.08195 0.270105,0.08195 0.272201,0 0.533043,-0.175522 0.781394,-0.526106 0.251786,-0.353809 0.378149,-0.730942 0.378149,-1.132987 0,-0.283044 -0.09753,-0.513095 -0.291461,-0.690019 -0.19394,-0.180119 -0.443789,-0.270774 -0.750004,-0.270774 -0.459336,0 -0.904573,0.19358 -1.336694,0.579547 -0.428712,0.385975 -0.779336,0.893294 -1.051549,1.523725 -0.2688,0.627207 -0.403273,1.224802 -0.403273,1.790899 0,0.521061 0.118619,0.935856 0.356793,1.244627 0.238175,0.305558 0.55508,0.458418 0.949791,0.458418 0.6669,0 1.304339,-0.446293 1.913348,-1.337231 l 0.959826,-0.129449 c 0.119091,-0.01608 0.178392,0.0112 0.178392,0.08194 0,0.03217 -0.04633,0.170023 -0.138191,0.414473 -0.09187,0.24445 -0.216974,0.65311 -0.376893,1.225593 0.527382,-0.289476 0.935705,-0.610181 1.224901,-0.960785 v 0.555798 c -0.23137,0.2541 -0.673397,0.540214 -1.32666,0.858631 -0.1361,0.855595 -0.438398,1.51576 -0.904507,1.982136 -0.466143,0.4696 -0.989801,0.705464 -1.571665,0.705464 -0.279007,0 -0.498387,-0.06186 -0.658281,-0.184081 -0.156517,-0.122226 -0.234926,-0.29042 -0.234926,-0.505921 0,-0.598258 0.614701,-1.179319 1.842978,-1.742195 0.129291,-0.434218 0.254403,-0.824765 0.376894,-1.172146 -0.214356,0.292692 -0.525139,0.551541 -0.933453,0.776667 -0.408296,0.225151 -0.787763,0.337282 -1.138195,0.337282 -0.571617,0 -1.047368,-0.233115 -1.428416,-0.699507 -0.377678,-0.469598 -0.566594,-1.062937 -0.566594,-1.780198 0,-0.755872 0.214517,-1.471734 0.643228,-2.147222 0.428712,-0.678648 0.990959,-1.220546 1.688475,-1.625815 0.697516,-0.408484 1.373165,-0.612797 2.026427,-0.612797 z m -0.786475,7.410962 c -0.884632,0.418134 -1.32666,0.829812 -1.32666,1.23508 0,0.2155 0.108877,0.324214 0.326639,0.324214 0.428712,0 0.76184,-0.520422 1.000027,-1.559356 z"
     inkscape:connector-curvature="0"
     style="fill:#26c6da;stroke-width:0.62539405" /></svg>